# xmcd
#
# Track frame offsets:
#	150
#	15900
#	33300
#	48900
#	65549
#	85050
#	102782
#	120891
#	136491
#	153807
#	169557
#	186957
#	202557
#	219206
#	238707
#	256439
#	274548
#	290148
#
# Disc length: 4101 seconds
#
# Revision: 1
# Processed by: cddbd v1.5.1PL2 Copyright (c) Steve Scherf et al.
# Submitted via: audiograbber 1.83.01
#
DISCID=e3100312
DTITLE=Pop Hits Monthly Nashville - Phmn0301
DYEAR=2003
DGENRE=Karaoke
TTITLE0=Deana Carter - There's No Limit
TTITLE1=Lee Ann Womack - Forever Everyday
TTITLE2=Mark Wills - 19 Somethin'
TTITLE3=Mark Chesnutt - I Want My Baby Back
TTITLE4=Shania Twain - I'm Gonna Getcha Good
TTITLE5=Anthony Smith - John J Blanchard
TTITLE6=Joe Nichols - Brokenheartsville
TTITLE7=Steve Holy - I'm Not Breakin'
TTITLE8=Gary Allan - Man To Man
TTITLE9=Deana Carter (Vocal) - There's No Limit
TTITLE10=Lee Ann Womack (Vocal) - Forever Everyday
TTITLE11=Mark Wills (Vocal) - 19 Somethin'
TTITLE12=Mark Chesnutt (Vocal) - I Want My Baby Back
TTITLE13=Shania Twain (Vocal) - I'm Gonna Getcha Good
TTITLE14=Anthony Smith (Vocal) - John J Blanchard
TTITLE15=Joe Nichols (Vocal) - Brokenheartsville
TTITLE16=Steve Holy (Vocal) - I'm Not Breakin'
TTITLE17=Gary Allan (Vocal) - Man To Man
EXTD=
EXTT0=
EXTT1=
EXTT2=
EXTT3=
EXTT4=
EXTT5=
EXTT6=
EXTT7=
EXTT8=
EXTT9=
EXTT10=
EXTT11=
EXTT12=
EXTT13=
EXTT14=
EXTT15=
EXTT16=
EXTT17=
PLAYORDER=
